<svg xmlns="http://www.w3.org/2000/svg" xmlns:xlink="http://www.w3.org/1999/xlink" width="250" zoomAndPan="magnify" viewBox="0 0 187.5 187.499992" height="250" preserveAspectRatio="xMidYMid meet" version="1.0"><defs><clipPath id="6b5393f2c7"><path d="M 3.039062 5 L 184 5 L 184 187 L 3.039062 187 Z M 3.039062 5 " clip-rule="nonzero"/></clipPath></defs><g clip-path="url(#6b5393f2c7)"><path fill="#ffde59" d="M 173.832031 102.636719 C 168.222656 102.636719 163.699219 107.195312 163.699219 112.769531 C 163.699219 116.171875 165.363281 119.136719 167.933594 120.984375 C 168.003906 122.070312 167.859375 123.152344 167.355469 124.238281 C 165.253906 129.488281 162.214844 134.261719 159.539062 139.183594 C 156.027344 143.453125 152.769531 147.976562 148.71875 151.738281 C 135.148438 165.199219 116.621094 173.304688 97.625 174.71875 C 96.214844 174.863281 95.164062 173.667969 94.1875 172.835938 C 90.425781 169.46875 92.957031 163.824219 92.703125 159.449219 C 103.488281 159.15625 114.453125 156.589844 123.679688 150.871094 C 121.472656 146.058594 118.578125 141.609375 116.550781 136.722656 C 118.324219 134.914062 119.445312 132.417969 119.445312 129.703125 C 119.445312 129.125 119.371094 128.582031 119.300781 128.039062 C 124.183594 125.179688 127.296875 120.296875 130.480469 115.773438 C 135.945312 115.664062 141.375 115.664062 146.835938 115.773438 C 145.027344 122.25 140.792969 127.714844 136.667969 132.886719 C 133.773438 136.578125 129.722656 139.039062 126.355469 142.222656 C 126.5 144.359375 128.019531 146.023438 129.035156 147.796875 C 142.023438 138.929688 152.15625 125.289062 155.558594 109.800781 C 145.894531 109.621094 136.234375 109.65625 126.574219 109.765625 C 124.183594 114.070312 121.398438 118.304688 117.636719 121.5625 C 117.238281 121.960938 116.839844 122.25 116.40625 122.429688 C 114.597656 120.65625 112.136719 119.570312 109.421875 119.570312 C 103.886719 119.570312 99.398438 124.058594 99.398438 129.59375 C 99.398438 129.921875 99.433594 130.210938 99.433594 130.535156 C 84.742188 134.117188 69.003906 126.84375 60.355469 114.757812 C 56.738281 117.835938 53.480469 121.308594 49.753906 124.238281 C 48.234375 123.296875 46.425781 122.757812 44.507812 122.757812 C 43.238281 122.757812 42.046875 123.007812 40.925781 123.40625 C 38.5 120.476562 37.449219 116.496094 35.96875 113.023438 C 31.949219 102.890625 32.09375 91.816406 33.398438 81.179688 C 31.480469 80.671875 29.527344 80.203125 27.609375 79.804688 C 24.351562 95.582031 26.957031 112.660156 35.316406 126.484375 C 35.570312 126.84375 35.75 127.207031 35.894531 127.570312 C 34.953125 129.125 34.375 130.933594 34.375 132.886719 C 34.375 138.496094 38.933594 143.019531 44.507812 143.019531 C 45.738281 143.019531 46.929688 142.800781 48.050781 142.367188 C 48.632812 142.65625 49.210938 143.019531 49.71875 143.5625 C 58.367188 150.90625 68.929688 156.226562 80.183594 157.890625 C 80.328125 156.011719 80.511719 154.09375 80.65625 152.210938 C 70.957031 149.351562 61.261719 145.480469 53.660156 138.640625 C 53.480469 138.496094 53.335938 138.316406 53.191406 138.132812 C 54.132812 136.613281 54.675781 134.804688 54.675781 132.886719 C 54.675781 131.550781 54.421875 130.28125 53.949219 129.089844 C 55.6875 127.0625 57.75 125.214844 60.136719 124.3125 C 63.105469 126.554688 65.675781 129.304688 68.894531 131.1875 C 78.011719 136.722656 89.195312 139.039062 99.722656 136.902344 C 100.628906 136.652344 101.496094 136.613281 102.367188 136.652344 C 104.175781 138.460938 106.671875 139.546875 109.421875 139.546875 C 109.746094 139.546875 110.074219 139.546875 110.398438 139.507812 C 112.570312 142.042969 113.726562 145.300781 115.101562 148.300781 C 106.164062 151.921875 96.429688 153.296875 86.84375 152.898438 C 85.9375 158.507812 86.660156 164.296875 85.539062 169.832031 C 83.511719 172.113281 80.367188 174.101562 77.179688 173.234375 C 60.679688 170.230469 45.195312 161.871094 33.613281 149.75 C 14.796875 130.609375 6.402344 101.695312 12.773438 75.535156 C 12.84375 75.425781 12.917969 75.355469 12.953125 75.246094 C 13.0625 75.246094 13.132812 75.246094 13.242188 75.246094 C 16.609375 75.246094 19.574219 73.582031 21.421875 71.046875 C 26.050781 72.0625 30.539062 73.726562 35.207031 74.703125 C 36.800781 70.9375 38.390625 67.175781 40.199219 63.523438 C 44.761719 56.574219 50.007812 49.769531 56.953125 45.066406 C 57.28125 44.8125 57.605469 44.667969 57.96875 44.523438 C 59.777344 46.152344 62.164062 47.167969 64.769531 47.167969 C 64.84375 47.167969 64.949219 47.167969 65.023438 47.167969 C 66.6875 49.554688 67.628906 52.484375 68.714844 55.164062 C 58.582031 61.929688 50.621094 72.460938 48.414062 84.582031 C 47.074219 93.917969 47.582031 103.757812 51.851562 112.296875 C 53.769531 111.359375 55.398438 109.945312 56.808594 108.355469 C 52.683594 97.210938 52.863281 84.183594 59.199219 73.871094 C 63.140625 66.34375 70.269531 61.460938 77.433594 57.40625 C 75.515625 53.171875 72.660156 49.265625 71.175781 44.886719 C 73.453125 43.039062 74.902344 40.183594 74.902344 37.035156 C 74.902344 36.746094 74.867188 36.417969 74.867188 36.128906 C 78.195312 34.683594 81.886719 34.25 85.46875 33.5625 C 92.8125 33.488281 100.230469 33.597656 107.359375 35.585938 C 113.183594 36.816406 118.324219 39.855469 123.640625 42.316406 C 126.246094 37.976562 128.164062 33.164062 131.3125 29.183594 C 131.640625 29.21875 131.929688 29.21875 132.253906 29.21875 C 134.570312 29.21875 136.667969 28.421875 138.371094 27.15625 C 139.601562 27.300781 140.792969 27.734375 141.808594 28.675781 C 155.375 39.097656 165.292969 54.113281 170.105469 70.503906 C 164.710938 70.613281 159.355469 70.648438 153.964844 70.503906 C 151.6875 64.714844 148.753906 59.179688 145.101562 54.148438 C 145.136719 54.148438 145.136719 54.148438 145.136719 54.148438 C 144.992188 53.96875 144.847656 53.789062 144.703125 53.570312 C 143.289062 51.652344 141.769531 49.808594 140.105469 48.070312 C 139.925781 47.890625 139.707031 47.671875 139.527344 47.492188 C 138.660156 46.550781 137.863281 45.753906 137.140625 45.066406 C 136.199219 44.125 135.183594 43.222656 134.136719 42.425781 C 131.601562 40.507812 130.519531 40.507812 130.519531 40.507812 C 129.722656 42.171875 128.890625 43.800781 128.058594 45.429688 C 131.351562 48.648438 134.894531 51.652344 137.863281 55.199219 C 143 61.386719 146.621094 68.730469 149.082031 76.367188 C 158.632812 76.65625 168.222656 76.546875 177.773438 76.332031 C 174.988281 58.09375 164.855469 41.339844 151.503906 28.820312 C 148.863281 26.214844 145.789062 24.082031 143.074219 21.511719 C 142.785156 21.222656 142.53125 20.894531 142.277344 20.570312 C 142.351562 20.101562 142.386719 19.59375 142.386719 19.085938 C 142.386719 13.476562 137.828125 8.953125 132.253906 8.953125 C 129.46875 8.953125 126.933594 10.078125 125.125 11.886719 C 124.4375 11.703125 123.789062 11.488281 123.136719 11.164062 C 94.515625 0.0546875 60.066406 5.589844 36.507812 25.347656 C 29.597656 31.425781 23.230469 38.15625 18.273438 45.972656 C 16.246094 48.867188 14.90625 52.339844 12.808594 55.199219 C 7.382812 55.378906 3.039062 59.832031 3.039062 65.332031 C 3.039062 68.40625 4.414062 71.121094 6.546875 73.003906 C 6.585938 73.652344 6.511719 74.339844 6.332031 74.992188 C 4.847656 81.179688 4.414062 87.476562 4.59375 93.808594 C 4.089844 108.464844 8.394531 122.9375 15.304688 135.78125 C 26.234375 155.71875 45.195312 171.136719 67.011719 177.539062 C 71.066406 178.84375 75.445312 179.058594 79.351562 180.722656 C 81.957031 182.859375 83.839844 186.695312 87.746094 186.441406 C 91.910156 186.949219 94.1875 183.074219 97.191406 181.050781 C 100.664062 180.507812 104.246094 180.46875 107.683594 179.710938 C 130.226562 175.839844 150.707031 162.304688 163.769531 143.632812 C 167.859375 138.097656 170.863281 131.839844 173.542969 125.542969 C 173.9375 124.382812 174.664062 123.515625 175.53125 122.757812 C 180.308594 121.960938 183.960938 117.796875 183.960938 112.769531 C 183.960938 107.160156 179.402344 102.636719 173.832031 102.636719 Z M 25.183594 46.984375 C 30.394531 39.566406 36.726562 32.835938 44.144531 27.589844 C 56.628906 18.796875 71.429688 12.898438 86.769531 12.101562 C 98.855469 11.015625 110.796875 13.804688 122.339844 17.207031 C 122.195312 17.929688 122.085938 18.652344 122.085938 19.414062 C 122.085938 22.308594 123.316406 24.914062 125.234375 26.757812 C 124.183594 29.328125 122.449219 31.605469 120.929688 33.921875 C 113.65625 31.207031 106.308594 28.207031 98.457031 27.699219 C 91.835938 27.300781 85.105469 27.15625 78.664062 28.929688 C 76.492188 29.398438 74.285156 30.160156 72.078125 30.375 C 70.234375 28.421875 67.628906 27.191406 64.699219 27.191406 C 59.089844 27.191406 54.566406 31.75 54.566406 37.324219 C 54.566406 37.757812 54.601562 38.15625 54.636719 38.589844 C 53.011719 40.4375 50.984375 41.917969 49.101562 43.511719 C 41.359375 49.808594 35.605469 58.273438 31.445312 67.285156 C 28.695312 66.742188 25.871094 66.308594 23.300781 65.1875 C 23.230469 62.039062 21.746094 59.214844 19.394531 57.40625 C 20.769531 53.605469 22.867188 50.167969 25.183594 46.984375 Z M 117.527344 73.183594 C 117.527344 71.265625 118.070312 69.492188 118.976562 67.972656 C 118.683594 66.960938 118.214844 65.980469 117.382812 65.1875 C 112.316406 60.046875 105.371094 57.082031 98.347656 55.707031 C 93.175781 54.621094 87.929688 55.488281 82.753906 56.03125 C 82.03125 54.042969 81.34375 52.085938 80.726562 50.0625 C 86.914062 49.046875 93.285156 48.792969 99.507812 49.554688 C 105.550781 50.640625 111.304688 53.0625 116.476562 56.355469 C 119.664062 58.3125 122.121094 61.277344 125.164062 63.414062 C 125.957031 63.195312 126.789062 63.085938 127.660156 63.085938 C 133.269531 63.085938 137.789062 67.648438 137.789062 73.21875 C 137.789062 78.828125 133.230469 83.351562 127.660156 83.351562 C 122.050781 83.316406 117.527344 78.792969 117.527344 73.183594 Z M 117.527344 73.183594 " fill-opacity="1" fill-rule="nonzero"/></g></svg>