<svg xmlns="http://www.w3.org/2000/svg" xmlns:xlink="http://www.w3.org/1999/xlink" width="750" zoomAndPan="magnify" viewBox="0 0 562.5 37.5" height="50" preserveAspectRatio="xMidYMid meet" version="1.0"><defs><clipPath id="11838eee83"><path d="M 9 16.335938 L 540 16.335938 L 540 20.777344 L 9 20.777344 Z M 9 16.335938 " clip-rule="nonzero"/></clipPath></defs><g clip-path="url(#11838eee83)"><path fill="#231f20" d="M 524.253906 17.332031 C 521.066406 17.316406 480.472656 17.117188 476.808594 17.113281 C 469.285156 17.109375 468.917969 17.410156 463.035156 17.472656 C 457.453125 17.535156 453.445312 17.347656 450.367188 17.214844 C 445.160156 16.992188 447.558594 17.085938 439.242188 17.183594 C 426.019531 17.332031 412.703125 17.121094 399.757812 17.042969 C 393.925781 17.011719 387.789062 16.976562 382.199219 17.046875 C 376.613281 17.125 371.992188 17.34375 373.785156 17.546875 C 373.519531 17.316406 367.675781 17.121094 361.324219 17.125 C 353.722656 17.128906 336.855469 17.296875 334.144531 17.507812 C 335.242188 17.421875 307.511719 17.367188 302.5625 17.335938 C 296.046875 17.300781 291.285156 17.144531 282.503906 17.074219 C 269.804688 16.972656 243.082031 17.457031 228.882812 17.398438 C 205.472656 17.296875 196.40625 17.003906 173.246094 17.167969 C 126.746094 17.5 113.191406 16.472656 91.960938 17.304688 C 90.527344 17.265625 89.753906 17.207031 88.324219 17.164062 C 83.726562 17.035156 77.484375 17 71.867188 16.984375 C 56.425781 16.9375 49.640625 17.132812 33.40625 17.167969 C 33.714844 17.921875 14.140625 17.492188 9.347656 18.078125 C 7.132812 18.351562 18.703125 19.160156 16.488281 19.433594 C 18.542969 19.78125 31.832031 19.851562 30.398438 20.246094 C 45.46875 20.226562 47.90625 20.425781 62.175781 20.339844 C 73.828125 20.265625 85.492188 20.195312 97.230469 20.140625 C 107.714844 20.09375 113.078125 20.3125 123.628906 20.300781 C 136.859375 20.289062 155.28125 20.046875 168.523438 20.058594 C 177.28125 20.066406 186.136719 20.058594 194.875 20.078125 C 202.246094 20.09375 216.574219 20.304688 221.203125 20.296875 C 234.339844 20.265625 249.894531 19.609375 263.40625 20.070312 C 266.074219 20.164062 267.988281 20.28125 270.859375 20.363281 C 275.0625 20.488281 287.878906 20.347656 293.273438 20.34375 C 297.695312 20.339844 302.125 20.332031 306.550781 20.332031 C 318.292969 20.320312 332.542969 20.367188 337.589844 20.746094 C 343.011719 20.453125 348.425781 20.164062 353.839844 19.871094 C 351.851562 20.183594 358.488281 20.535156 367.371094 20.578125 C 376.25 20.625 385.46875 20.351562 386.15625 20.027344 C 393.828125 20.171875 406.339844 20.539062 414.863281 20.574219 C 415.066406 20.574219 439.714844 20.515625 432.496094 20.339844 C 437.757812 20.464844 437.375 20.152344 441.648438 20.355469 C 447.945312 20.652344 463.195312 19.964844 470.976562 20.300781 C 477.394531 20.582031 501.253906 20.25 511.574219 19.960938 C 534.179688 19.328125 554.871094 17.515625 524.253906 17.332031 " fill-opacity="1" fill-rule="nonzero"/></g></svg>